<?xml version="1.0" encoding="utf-8"?>
<!-- Generator: Adobe Illustrator 15.0.0, SVG Export Plug-In . SVG Version: 6.00 Build 0)  -->
<!DOCTYPE svg PUBLIC "-//W3C//DTD SVG 1.1//EN" "http://www.w3.org/Graphics/SVG/1.1/DTD/svg11.dtd">
<svg version="1.1" id="Layer_1" xmlns="http://www.w3.org/2000/svg" xmlns:xlink="http://www.w3.org/1999/xlink" x="0px" y="0px"
	 width="301.891px" height="27px" viewBox="0 0 301.891 27" enable-background="new 0 0 301.891 27" xml:space="preserve">
<path fill="#ED1C2E" d="M160.645,13.391c0,5.184-4.201,9.382-9.384,9.382c-5.182,0-9.383-4.198-9.383-9.382
	c0-5.181,4.201-9.382,9.383-9.382C156.443,4.009,160.645,8.21,160.645,13.391"/>
<path fill="#FCB131" d="M163.857,4.009c-2.424,0-4.635,0.92-6.299,2.429c-0.339,0.307-0.654,0.641-0.945,0.992h1.895
	c0.26,0.315,0.496,0.648,0.715,0.995h-3.326c-0.199,0.318-0.381,0.65-0.541,0.994h4.408c0.151,0.322,0.283,0.654,0.396,0.993h-5.2
	c-0.11,0.324-0.2,0.655-0.274,0.993h5.745c0.14,0.641,0.214,1.304,0.214,1.985c0,1.043-0.17,2.046-0.484,2.982h-5.2
	c0.112,0.34,0.245,0.671,0.396,0.993h4.408c-0.162,0.343-0.341,0.675-0.542,0.994h-3.325c0.217,0.347,0.455,0.679,0.717,0.993h1.895
	c-0.292,0.351-0.609,0.686-0.949,0.994c1.664,1.509,3.875,2.425,6.299,2.425c5.184,0,9.383-4.197,9.383-9.382
	C173.24,8.21,169.041,4.009,163.857,4.009"/>
<path fill="#FCB131" d="M171.99,18.622c0-0.168,0.137-0.302,0.303-0.302c0.168,0,0.305,0.134,0.305,0.302
	c0,0.169-0.137,0.303-0.305,0.303C172.127,18.925,171.99,18.791,171.99,18.622 M172.293,18.853c0.129,0,0.231-0.102,0.231-0.23
	c0-0.127-0.103-0.229-0.231-0.229c-0.125,0-0.23,0.103-0.23,0.229C172.062,18.751,172.168,18.853,172.293,18.853 M172.254,18.754
	h-0.062V18.49h0.111c0.022,0,0.049,0,0.07,0.013c0.019,0.014,0.032,0.041,0.032,0.065c0,0.031-0.019,0.06-0.047,0.069l0.05,0.116
	h-0.07l-0.041-0.104h-0.043V18.754z M172.254,18.604h0.033c0.014,0,0.028,0,0.038-0.005c0.011-0.008,0.015-0.02,0.015-0.031
	c0-0.01-0.006-0.022-0.015-0.025c-0.01-0.01-0.028-0.008-0.039-0.008h-0.032V18.604z"/>
<path fill="#003473" d="M149.071,14.418c-0.109-0.011-0.156-0.014-0.228-0.014c-0.578,0-0.872,0.197-0.872,0.588
	c0,0.241,0.146,0.395,0.367,0.395C148.752,15.387,149.052,14.992,149.071,14.418 M149.811,16.144h-0.845l0.02-0.401
	c-0.257,0.317-0.6,0.47-1.068,0.47c-0.55,0-0.93-0.433-0.93-1.06c0-0.943,0.659-1.492,1.789-1.492c0.115,0,0.262,0.012,0.416,0.029
	c0.03-0.127,0.037-0.182,0.037-0.249c0-0.256-0.177-0.354-0.651-0.354c-0.499-0.005-0.911,0.12-1.079,0.177
	c0.009-0.065,0.141-0.871,0.141-0.871c0.507-0.148,0.842-0.206,1.218-0.206c0.876,0,1.34,0.394,1.339,1.137
	c0.001,0.196-0.032,0.443-0.082,0.767C150.026,14.648,149.836,15.852,149.811,16.144"/>
<polygon fill="#003473" points="146.562,16.144 145.543,16.144 146.126,12.484 144.824,16.144 144.131,16.144 144.043,12.506 
	143.431,16.144 142.477,16.144 143.273,11.384 144.738,11.384 144.827,14.049 145.72,11.384 147.349,11.384 "/>
<path fill="#003473" d="M165.117,14.418c-0.109-0.011-0.153-0.014-0.229-0.014c-0.576,0-0.867,0.197-0.867,0.588
	c0,0.241,0.142,0.395,0.364,0.395C164.801,15.387,165.1,14.992,165.117,14.418 M165.859,16.144h-0.846l0.02-0.401
	c-0.258,0.317-0.602,0.47-1.067,0.47c-0.553,0-0.931-0.433-0.931-1.06c0-0.943,0.66-1.492,1.787-1.492
	c0.117,0,0.266,0.012,0.418,0.029c0.029-0.127,0.039-0.182,0.039-0.249c0-0.256-0.178-0.354-0.652-0.354
	c-0.499-0.005-0.911,0.12-1.081,0.177c0.015-0.065,0.144-0.871,0.144-0.871c0.508-0.148,0.842-0.206,1.217-0.206
	c0.877,0,1.341,0.394,1.339,1.137c0.002,0.196-0.031,0.443-0.085,0.767C166.074,14.648,165.883,15.852,165.859,16.144"/>
<path fill="#003473" d="M154.338,16.085c-0.278,0.087-0.498,0.127-0.732,0.127c-0.52,0-0.805-0.301-0.805-0.851
	c-0.006-0.172,0.074-0.624,0.14-1.033c0.06-0.361,0.442-2.64,0.442-2.64h1.013l-0.119,0.584h0.612l-0.139,0.931h-0.615
	c-0.114,0.737-0.283,1.655-0.284,1.773c0,0.203,0.104,0.289,0.347,0.289c0.117,0,0.206-0.012,0.276-0.039L154.338,16.085z"/>
<path fill="#003473" d="M157.442,16.055c-0.348,0.106-0.682,0.157-1.039,0.157c-1.134-0.003-1.723-0.596-1.723-1.728
	c0-1.322,0.751-2.298,1.771-2.298c0.836,0,1.368,0.544,1.368,1.402c0,0.282-0.036,0.56-0.125,0.95h-2.017
	c-0.067,0.56,0.292,0.795,0.881,0.795c0.361,0,0.689-0.073,1.052-0.242L157.442,16.055z M156.873,13.758
	c0.006-0.078,0.107-0.689-0.471-0.689c-0.322,0-0.553,0.245-0.646,0.689H156.873z"/>
<path fill="#003473" d="M150.422,13.496c0,0.491,0.237,0.828,0.775,1.081c0.412,0.194,0.475,0.252,0.475,0.428
	c0,0.24-0.181,0.352-0.584,0.352c-0.304,0-0.586-0.048-0.912-0.155c0,0-0.134,0.855-0.141,0.895c0.232,0.05,0.439,0.098,1.061,0.116
	c1.075,0,1.572-0.411,1.572-1.295c0-0.533-0.208-0.845-0.719-1.079c-0.426-0.195-0.476-0.239-0.476-0.42
	c0-0.21,0.169-0.314,0.498-0.314c0.2,0,0.473,0.02,0.733,0.056l0.144-0.897c-0.262-0.042-0.663-0.074-0.896-0.074
	C150.812,12.188,150.417,12.781,150.422,13.496"/>
<path fill="#003473" d="M162.398,12.288c0.281,0,0.547,0.074,0.909,0.259l0.165-1.033c-0.148-0.061-0.674-0.404-1.119-0.404
	c-0.682,0-1.259,0.34-1.662,0.896c-0.593-0.196-0.836,0.201-1.134,0.595l-0.264,0.062c0.019-0.13,0.038-0.26,0.032-0.39h-0.937
	c-0.128,1.198-0.354,2.411-0.53,3.611l-0.047,0.26h1.02c0.171-1.106,0.262-1.812,0.32-2.295l0.383-0.209
	c0.055-0.214,0.238-0.286,0.596-0.277c-0.046,0.252-0.07,0.518-0.07,0.794c0,1.266,0.684,2.056,1.778,2.056
	c0.284,0,0.526-0.039,0.901-0.14l0.179-1.085c-0.338,0.165-0.614,0.244-0.865,0.244c-0.593,0-0.948-0.439-0.948-1.161
	C161.105,13.022,161.636,12.288,162.398,12.288"/>
<path fill="#003473" d="M171.02,11.384l-0.225,1.375c-0.277-0.365-0.576-0.631-0.974-0.631c-0.512,0-0.981,0.391-1.286,0.962
	c-0.429-0.087-0.869-0.238-0.869-0.238v0.003c0.033-0.32,0.049-0.516,0.045-0.582h-0.937c-0.126,1.198-0.353,2.412-0.53,3.611
	l-0.046,0.261h1.017c0.14-0.895,0.246-1.637,0.324-2.225c0.346-0.314,0.521-0.59,0.873-0.569c-0.158,0.376-0.246,0.81-0.246,1.254
	c0,0.968,0.487,1.607,1.229,1.607c0.375,0,0.659-0.13,0.939-0.428l-0.049,0.359h0.965l0.774-4.76H171.02z M169.748,15.248
	c-0.349,0-0.523-0.256-0.523-0.761c0-0.761,0.329-1.302,0.791-1.302c0.348,0,0.54,0.268,0.54,0.759
	C170.556,14.713,170.222,15.248,169.748,15.248"/>
<polygon fill="#FFFFFF" points="146.854,15.862 145.835,15.862 146.419,12.202 145.118,15.862 144.421,15.862 144.335,12.225 
	143.724,15.862 142.769,15.862 143.566,11.103 145.032,11.103 145.073,14.049 146.06,11.103 147.643,11.103 "/>
<path fill="#FFFFFF" d="M149.364,14.138c-0.107-0.013-0.155-0.018-0.229-0.018c-0.577,0-0.868,0.198-0.868,0.591
	c0,0.24,0.141,0.394,0.365,0.394C149.046,15.104,149.346,14.71,149.364,14.138 M150.105,15.862h-0.845l0.019-0.401
	c-0.256,0.316-0.602,0.468-1.068,0.468c-0.552,0-0.929-0.432-0.929-1.058c0-0.942,0.657-1.491,1.787-1.491
	c0.117,0,0.264,0.009,0.416,0.029c0.031-0.129,0.041-0.184,0.041-0.252c0-0.256-0.179-0.352-0.654-0.352
	c-0.499-0.004-0.91,0.118-1.079,0.174c0.011-0.063,0.14-0.87,0.14-0.87c0.508-0.147,0.844-0.205,1.22-0.205
	c0.875,0,1.338,0.393,1.338,1.134c0.002,0.2-0.033,0.445-0.083,0.769C150.32,14.365,150.129,15.568,150.105,15.862"/>
<path fill="#FFFFFF" d="M163.766,11.229l-0.166,1.032c-0.363-0.183-0.627-0.256-0.91-0.256c-0.76,0-1.293,0.733-1.293,1.784
	c0,0.722,0.358,1.158,0.951,1.158c0.25,0,0.526-0.077,0.864-0.243l-0.179,1.084c-0.375,0.102-0.619,0.139-0.9,0.139
	c-1.097,0-1.779-0.787-1.779-2.052c0-1.704,0.943-2.894,2.293-2.894C163.092,10.982,163.616,11.172,163.766,11.229"/>
<path fill="#FFFFFF" d="M165.411,14.138c-0.107-0.013-0.154-0.018-0.228-0.018c-0.578,0-0.871,0.198-0.871,0.591
	c0,0.24,0.145,0.394,0.365,0.394C165.094,15.104,165.393,14.71,165.411,14.138 M166.15,15.862h-0.842l0.018-0.401
	c-0.258,0.316-0.602,0.468-1.067,0.468c-0.552,0-0.929-0.432-0.929-1.058c0-0.942,0.656-1.491,1.787-1.491
	c0.115,0,0.263,0.009,0.414,0.029c0.031-0.129,0.041-0.184,0.041-0.252c0-0.256-0.178-0.352-0.654-0.352
	c-0.499-0.004-0.908,0.118-1.079,0.174c0.013-0.063,0.142-0.87,0.142-0.87c0.51-0.147,0.842-0.205,1.219-0.205
	c0.877,0,1.34,0.393,1.339,1.134c0.003,0.2-0.033,0.445-0.083,0.769C166.367,14.365,166.178,15.568,166.15,15.862"/>
<path fill="#FFFFFF" d="M154.631,15.803c-0.277,0.087-0.496,0.125-0.729,0.125c-0.522,0-0.808-0.299-0.808-0.852
	c-0.006-0.168,0.076-0.619,0.141-1.031c0.057-0.36,0.441-2.64,0.441-2.64h1.014l-0.12,0.587h0.521l-0.14,0.929h-0.521
	c-0.117,0.737-0.284,1.653-0.287,1.773c0,0.201,0.105,0.289,0.351,0.289c0.116,0,0.204-0.013,0.272-0.037L154.631,15.803z"/>
<path fill="#FFFFFF" d="M157.734,15.771c-0.346,0.104-0.684,0.156-1.038,0.156c-1.134,0-1.724-0.591-1.724-1.726
	c0-1.323,0.751-2.298,1.771-2.298c0.836,0,1.367,0.545,1.367,1.4c0,0.284-0.035,0.561-0.123,0.952h-2.016
	c-0.07,0.562,0.289,0.796,0.879,0.796c0.363,0,0.689-0.076,1.053-0.243L157.734,15.771z M157.168,13.478
	c0.004-0.081,0.106-0.692-0.472-0.692c-0.323,0-0.554,0.248-0.647,0.692H157.168z"/>
<path fill="#FFFFFF" d="M150.714,13.214c0,0.491,0.238,0.828,0.777,1.081c0.413,0.194,0.477,0.251,0.477,0.428
	c0,0.242-0.183,0.35-0.586,0.35c-0.305,0-0.586-0.049-0.914-0.153c0,0-0.133,0.854-0.139,0.895c0.233,0.052,0.439,0.098,1.06,0.114
	c1.075,0,1.572-0.41,1.572-1.293c0-0.533-0.207-0.845-0.718-1.079c-0.428-0.196-0.477-0.24-0.477-0.42c0-0.209,0.17-0.315,0.5-0.315
	c0.199,0,0.47,0.02,0.73,0.057l0.146-0.897c-0.264-0.042-0.664-0.075-0.897-0.075C151.106,11.904,150.71,12.499,150.714,13.214"/>
<path fill="#FFFFFF" d="M171.543,15.861h-0.963l0.047-0.359c-0.279,0.297-0.565,0.426-0.939,0.426c-0.74,0-1.23-0.64-1.23-1.607
	c0-1.285,0.76-2.371,1.658-2.371c0.395,0,0.695,0.162,0.973,0.528l0.226-1.375h1.005L171.543,15.861z M170.039,14.967
	c0.476,0,0.81-0.537,0.81-1.305c0-0.489-0.191-0.759-0.54-0.759c-0.462,0-0.79,0.538-0.79,1.302
	C169.519,14.711,169.693,14.967,170.039,14.967"/>
<path fill="#FFFFFF" d="M167.07,11.992c-0.129,1.196-0.356,2.411-0.533,3.608l-0.047,0.262h1.02
	c0.366-2.366,0.453-2.829,1.025-2.772c0.09-0.484,0.262-0.908,0.387-1.122c-0.428-0.089-0.667,0.153-0.979,0.61
	c0.024-0.199,0.069-0.392,0.062-0.586H167.07z"/>
<path fill="#FFFFFF" d="M158.684,11.992c-0.127,1.196-0.354,2.411-0.533,3.608l-0.045,0.262h1.019
	c0.366-2.366,0.452-2.829,1.024-2.772c0.092-0.484,0.261-0.908,0.386-1.122c-0.425-0.089-0.665,0.153-0.976,0.61
	c0.024-0.199,0.069-0.392,0.061-0.586H158.684z"/>
<path fill="#FFFFFF" d="M171.99,15.559c0-0.168,0.137-0.304,0.303-0.304c0.168,0,0.303,0.136,0.303,0.304
	c0,0.165-0.135,0.304-0.303,0.304C172.127,15.862,171.99,15.724,171.99,15.559 M172.293,15.789c0.129,0,0.231-0.104,0.231-0.23
	c0-0.125-0.103-0.23-0.231-0.23c-0.125,0-0.23,0.105-0.23,0.23C172.062,15.686,172.168,15.789,172.293,15.789 M172.254,15.691
	h-0.062v-0.266h0.111c0.022,0,0.048,0,0.067,0.013c0.021,0.015,0.034,0.04,0.034,0.067c0,0.028-0.018,0.06-0.046,0.069l0.049,0.116
	h-0.069l-0.041-0.106h-0.043V15.691z M172.254,15.54h0.033c0.012,0,0.028,0,0.037-0.006c0.012-0.005,0.016-0.019,0.016-0.028
	c0-0.011-0.006-0.023-0.015-0.027c-0.01-0.008-0.028-0.007-0.041-0.007h-0.03V15.54z"/>
<path fill="#FFFFFF" d="M179.361,13.404L179.361,13.404C179.361,13.368,179.359,13.371,179.361,13.404"/>
<path fill="#FFFFFF" d="M59.262,21.452c0.011,0.22,0.171,1.824,2.04,1.824h37.166l0.002-19.77H59.265
	C59.262,7.803,59.262,18.018,59.262,21.452"/>
<path fill="#0058A0" d="M70.452,7.631l-2.859,7.706l-0.304-1.565c-0.691-1.869-2.036-3.575-4.043-4.719l2.612,9.87h3.089
	l4.596-11.292H70.452"/>
<polygon fill="#0058A0" points="72.899,18.926 74.724,7.622 77.645,7.622 75.818,18.926 "/>
<path fill="#0058A0" d="M86.405,7.9c-0.576-0.229-1.487-0.477-2.614-0.477c-2.888,0-4.918,1.534-4.935,3.729
	c-0.018,1.629,1.449,2.533,2.558,3.075c1.136,0.556,1.518,0.908,1.514,1.403c-0.011,0.757-0.912,1.1-1.75,1.1
	c-1.166,0-1.787-0.168-2.743-0.592l-0.381-0.178l-0.407,2.529c0.683,0.319,1.941,0.588,3.255,0.604c3.064,0,5.056-1.516,5.08-3.863
	c0.014-1.288-0.766-2.267-2.455-3.072c-1.017-0.521-1.647-0.868-1.638-1.401c0.002-0.469,0.531-0.97,1.675-0.97
	c0.956-0.02,1.641,0.2,2.185,0.433l0.261,0.132L86.405,7.9"/>
<path fill="#0058A0" d="M93.89,7.634h-2.254c-0.701,0-1.223,0.202-1.533,0.937L85.77,18.928h3.068c0,0,0.502-1.391,0.612-1.696
	c0.337,0,3.312,0.007,3.737,0.007c0.09,0.394,0.358,1.689,0.358,1.689h2.71L93.89,7.634 M90.292,14.917
	c0.243-0.647,1.165-3.156,1.165-3.156c-0.019,0.03,0.234-0.657,0.386-1.081l0.194,0.977c0,0,0.563,2.7,0.678,3.261H90.292z"/>
<path fill="#FAA61A" d="M64.945,7.629h-4.709l-0.025,0.192c3.657,0.936,6.073,3.236,7.078,5.954l-1.023-5.193
	C66.091,7.863,65.579,7.654,64.945,7.629"/>
<g>
	<defs>
		<path id="SVGID_1_" d="M185.479,1.849v23.084h32.91v-7.617c0.133-0.132,0.196-0.301,0.196-0.507c0-0.237-0.063-0.384-0.196-0.508
			V1.849H185.479z"/>
	</defs>
	<clipPath id="SVGID_2_">
		<use xlink:href="#SVGID_1_"  overflow="visible"/>
	</clipPath>
	
		<radialGradient id="SVGID_3_" cx="-476.4297" cy="1581.457" r="1" gradientTransform="matrix(30.883 0 0 21.5815 14904.8594 -34124.2812)" gradientUnits="userSpaceOnUse">
		<stop  offset="0" style="stop-color:#9ECFEE"/>
		<stop  offset="0.0711" style="stop-color:#97CEEE"/>
		<stop  offset="0.1575" style="stop-color:#8BCCF0"/>
		<stop  offset="0.2516" style="stop-color:#75C4EC"/>
		<stop  offset="0.3514" style="stop-color:#56BAE8"/>
		<stop  offset="0.4546" style="stop-color:#26A9E1"/>
		<stop  offset="0.5" style="stop-color:#26A3DC"/>
		<stop  offset="1" style="stop-color:#337ABA"/>
	</radialGradient>
	<rect x="185.479" y="1.849" clip-path="url(#SVGID_2_)" fill="url(#SVGID_3_)" width="33.106" height="23.084"/>
</g>
<path fill="#FFFFFF" d="M190.88,11.659l-0.511-1.244l-0.508,1.244 M202.136,11.166c-0.103,0.061-0.226,0.062-0.369,0.062h-0.907
	v-0.693h0.92c0.131,0,0.264,0.007,0.354,0.057c0.098,0.046,0.158,0.145,0.158,0.276C202.291,11.005,202.234,11.115,202.136,11.166
	 M208.605,11.659l-0.517-1.244l-0.513,1.244H208.605z M196.546,13.008h-0.767l-0.002-2.444l-1.082,2.444h-0.656l-1.086-2.447v2.447
	h-1.519l-0.286-0.695h-1.554l-0.291,0.695h-0.81l1.338-3.123h1.107l1.27,2.959V9.885h1.22l0.976,2.118l0.898-2.118h1.243V13.008z
	 M199.595,13.008h-2.493V9.885h2.493v0.65h-1.747v0.562h1.706v0.641h-1.706v0.624h1.747V13.008z M203.111,10.727
	c0,0.497-0.332,0.755-0.525,0.832c0.164,0.062,0.303,0.171,0.369,0.264c0.104,0.156,0.123,0.293,0.123,0.57v0.615h-0.752
	l-0.002-0.394c0-0.188,0.017-0.458-0.119-0.608c-0.109-0.11-0.275-0.134-0.543-0.134h-0.803v1.136h-0.746V9.885h1.717
	c0.382,0,0.662,0.011,0.904,0.151C202.969,10.174,203.111,10.378,203.111,10.727 M204.308,13.008h-0.763V9.885h0.763V13.008z
	 M213.144,13.008h-1.057l-1.415-2.343v2.343h-1.521l-0.293-0.695h-1.547l-0.283,0.695h-0.873c-0.363,0-0.821-0.079-1.086-0.346
	c-0.259-0.263-0.395-0.623-0.395-1.19c0-0.464,0.081-0.886,0.4-1.224c0.242-0.248,0.619-0.363,1.134-0.363h0.722v0.669h-0.705
	c-0.271,0-0.428,0.041-0.576,0.187c-0.127,0.13-0.214,0.378-0.214,0.707c0,0.334,0.067,0.575,0.203,0.734
	c0.117,0.121,0.326,0.158,0.522,0.158h0.334l1.054-2.455h1.118l1.264,2.953V9.885h1.139l1.312,2.176V9.885h0.764V13.008z
	 M188.486,13.621h1.274l0.287-0.692h0.646l0.284,0.692h2.511v-0.529l0.226,0.532h1.301l0.226-0.542v0.539h6.237l-0.004-1.138h0.12
	c0.085,0.003,0.111,0.012,0.111,0.15v0.987h3.223v-0.264c0.264,0.141,0.667,0.264,1.199,0.264h1.359l0.287-0.692h0.644l0.286,0.692
	h2.613v-0.658l0.397,0.658h2.095V9.265h-2.072v0.514l-0.293-0.514h-2.125v0.514l-0.267-0.514h-2.878c-0.48,0-0.902,0.07-1.246,0.257
	V9.265h-1.982v0.257c-0.217-0.194-0.514-0.257-0.843-0.257h-7.247l-0.486,1.126l-0.5-1.126h-2.281v0.514l-0.251-0.514h-1.948
	l-0.902,2.073V13.621z"/>
<path fill="#FFFFFF" d="M215.045,15.926h-1.36c-0.135,0-0.226,0.004-0.3,0.058c-0.08,0.051-0.111,0.126-0.111,0.224
	c0,0.117,0.068,0.199,0.164,0.232c0.078,0.027,0.164,0.037,0.287,0.037l0.402,0.011c0.41,0.01,0.683,0.079,0.85,0.25
	c0.029,0.024,0.048,0.052,0.068,0.077 M215.045,17.984c-0.18,0.267-0.533,0.4-1.014,0.4h-1.44v-0.67h1.438
	c0.142,0,0.24-0.018,0.3-0.076c0.053-0.048,0.092-0.119,0.092-0.205c0-0.091-0.039-0.163-0.094-0.206
	c-0.055-0.049-0.133-0.069-0.266-0.069c-0.7-0.023-1.572,0.021-1.572-0.968c0-0.452,0.285-0.929,1.071-0.929h1.485v-0.621h-1.381
	c-0.418,0-0.721,0.099-0.935,0.254v-0.254h-2.044c-0.327,0-0.71,0.079-0.891,0.254v-0.254h-3.65v0.254
	c-0.291-0.209-0.779-0.254-1.005-0.254h-2.409v0.254c-0.229-0.223-0.74-0.254-1.051-0.254h-2.695l-0.617,0.666l-0.576-0.666h-4.024
	v4.355h3.949l0.636-0.675l0.598,0.675l2.436,0.005v-1.024h0.238c0.321,0.004,0.703-0.01,1.039-0.156v1.176h2.008V17.86h0.097
	c0.123,0,0.136,0.007,0.136,0.13v1.006h6.1c0.387,0,0.791-0.097,1.016-0.277v0.277h1.934c0.401,0,0.795-0.054,1.094-0.198V17.984z
	 M212.067,16.737c0.147,0.15,0.224,0.34,0.224,0.662c0,0.672-0.42,0.985-1.172,0.985h-1.453v-0.67h1.447
	c0.143,0,0.24-0.018,0.305-0.076c0.05-0.048,0.088-0.119,0.088-0.205c0-0.091-0.04-0.163-0.092-0.206
	c-0.056-0.049-0.137-0.069-0.267-0.069c-0.696-0.023-1.571,0.021-1.571-0.968c0-0.452,0.283-0.929,1.067-0.929h1.496v0.664h-1.369
	c-0.136,0-0.224,0.004-0.3,0.058c-0.08,0.051-0.112,0.126-0.112,0.224c0,0.117,0.071,0.199,0.165,0.232
	c0.078,0.027,0.162,0.037,0.289,0.037l0.403,0.011C211.621,16.497,211.898,16.566,212.067,16.737 M205.332,16.544
	c-0.102,0.061-0.225,0.065-0.371,0.065h-0.905v-0.702h0.921c0.131,0,0.266,0.002,0.355,0.056c0.096,0.053,0.154,0.148,0.154,0.28
	C205.486,16.379,205.428,16.487,205.332,16.544 M205.783,16.931c0.164,0.064,0.301,0.173,0.363,0.265
	c0.107,0.152,0.121,0.295,0.126,0.572v0.617h-0.752v-0.39c0-0.188,0.019-0.468-0.119-0.612c-0.11-0.112-0.274-0.14-0.549-0.14
	h-0.797v1.142h-0.749v-3.123h1.725c0.375,0,0.653,0.016,0.896,0.147c0.236,0.142,0.382,0.337,0.382,0.692
	C206.31,16.602,205.979,16.854,205.783,16.931 M206.726,15.262h2.49v0.646h-1.747v0.569h1.705v0.637h-1.705v0.62l1.747,0.001v0.65
	h-2.49V15.262z M201.688,16.703h-0.963v-0.796h0.972c0.271,0,0.456,0.108,0.456,0.383C202.153,16.561,201.976,16.703,201.688,16.703
	 M199.979,18.099l-1.147-1.271l1.147-1.232V18.099z M197.019,17.733h-1.834v-0.62h1.64v-0.637h-1.64v-0.569h1.872l0.816,0.91
	L197.019,17.733z M202.955,16.29c0,0.868-0.647,1.048-1.299,1.048h-0.931v1.047h-1.453l-0.92-1.033l-0.954,1.033h-2.957v-3.123
	h3.003l0.919,1.023l0.947-1.023h2.387C202.291,15.262,202.955,15.426,202.955,16.29"/>
<path fill="#039EA5" d="M270.969,20.097v-6.476h1.967c1.149,0,2.047,0.371,2.047,1.675c0,0.569-0.207,1.079-0.732,1.365v0.017
	c0.689,0.396,0.837,0.742,0.837,1.544c0,1.312-0.744,1.875-1.978,1.875H270.969z M272.488,16.167c0.664-0.043,0.976,0,0.976-0.771
	c0-0.635-0.44-0.61-0.976-0.61V16.167z M272.488,18.929c0.76-0.016,1.078,0.035,1.078-0.835c0-0.752-0.433-0.734-1.078-0.76V18.929z
	"/>
<path fill="#039EA5" d="M278.041,19.663c-0.346,0.38-0.641,0.588-1.184,0.588c-0.775,0-1.262-0.528-1.262-1.294
	c0-1.1,0.598-1.442,1.202-1.642c0.594-0.198,1.19-0.259,1.19-0.777c0-0.267-0.155-0.501-0.434-0.501
	c-0.498,0-0.498,0.347-0.525,0.752h-1.371c-0.062-1.208,0.75-1.666,1.854-1.666c1.356,0,1.849,0.414,1.849,1.476v2.962
	c0,0.18,0.053,0.362,0.112,0.536h-1.34L278.041,19.663z M277.988,17.748c-0.276,0.146-0.52,0.224-0.69,0.354
	c-0.173,0.12-0.32,0.293-0.32,0.621c0,0.302,0.183,0.517,0.511,0.517c0.404,0,0.492-0.421,0.5-0.733V17.748z"/>
<path fill="#039EA5" d="M281.408,15.264v0.602h0.017c0.13-0.372,0.526-0.742,0.959-0.742c0.647,0,1.226,0.354,1.226,1.01v3.964
	h-1.373v-3.453c-0.018-0.227-0.103-0.416-0.363-0.398c-0.24,0.009-0.369,0.148-0.369,0.398v3.453h-1.372v-4.833H281.408z"/>
<path fill="#039EA5" d="M286.666,17.057l-0.009-0.087c-0.026-0.181-0.017-0.371-0.051-0.553c-0.06-0.197-0.166-0.302-0.372-0.302
	c-0.354,0-0.414,0.278-0.414,0.588v1.993c0,0.303,0.086,0.561,0.439,0.561c0.51,0,0.425-0.759,0.425-1.122h1.328
	c0,0.286-0.035,0.89-0.112,1.149c-0.182,0.603-0.699,0.88-1.294,0.94c-0.13,0.008-0.251,0.026-0.458,0.026
	c-0.982,0-1.7-0.397-1.7-1.503v-1.969c0-1.242,0.64-1.656,1.7-1.656c1.355,0.017,1.891,0.605,1.812,1.934H286.666z"/>
<path fill="#039EA5" d="M290.992,19.663c-0.344,0.38-0.639,0.588-1.184,0.588c-0.775,0-1.26-0.528-1.26-1.294
	c0-1.1,0.598-1.442,1.202-1.642c0.595-0.198,1.19-0.259,1.19-0.777c0-0.267-0.156-0.501-0.434-0.501
	c-0.499,0-0.499,0.347-0.523,0.752h-1.373c-0.062-1.208,0.75-1.666,1.855-1.666c1.355,0,1.848,0.414,1.848,1.476v2.962
	c0,0.18,0.051,0.362,0.111,0.536h-1.337L290.992,19.663z M290.941,17.748c-0.275,0.146-0.52,0.224-0.69,0.354
	c-0.173,0.12-0.321,0.293-0.321,0.621c0,0.302,0.182,0.517,0.51,0.517c0.406,0,0.492-0.421,0.502-0.733V17.748z"/>
<path fill="#039EA5" d="M294.3,15.264v0.731h0.017c0.156-0.519,0.492-0.872,1.062-0.872v1.555c-0.136-0.026-0.274-0.034-0.413-0.034
	c-0.387,0-0.545,0.076-0.568,0.475v2.979h-1.373v-4.833H294.3z"/>
<path fill="#039EA5" d="M296.055,13.621h1.371v1.165h-1.371V13.621z M296.055,15.264h1.371v4.833h-1.371V15.264z"/>
<path fill="#039EA5" d="M298.299,16.779c0-1.242,0.732-1.656,1.795-1.656c1.209,0,1.797,0.569,1.797,1.656v1.969
	c-0.069,1.099-0.752,1.503-1.797,1.503c-0.984,0-1.795-0.397-1.795-1.503V16.779z M299.672,18.835
	c0.024,0.275,0.138,0.422,0.422,0.422c0.285,0,0.396-0.146,0.425-0.422v-2.157c0-0.312-0.104-0.562-0.425-0.562
	c-0.319,0-0.422,0.249-0.422,0.562V18.835z"/>
<path fill="#696968" d="M270.947,12.525l1.274-5.992h1.808c0.478,0,0.941,0.032,1.174,0.439c0.187,0.326,0.152,0.672,0.067,1.081
	c-0.112,0.516-0.332,1.026-0.985,1.251l-0.006,0.017c0.613,0.09,0.74,0.614,0.575,1.39c-0.051,0.25-0.12,0.496-0.235,0.735
	c-0.401,0.759-0.902,1.079-1.699,1.079H270.947z M272.49,11.646c0.233,0,0.467,0.023,0.686-0.063
	c0.332-0.137,0.454-0.527,0.521-0.831c0.137-0.648,0.065-0.92-0.629-0.92h-0.432l-0.387,1.814H272.49z M273.031,8.955
	c0.272,0,0.621,0.014,0.844-0.21c0.136-0.151,0.197-0.358,0.259-0.646c0.095-0.444,0.046-0.67-0.46-0.686h-0.521l-0.326,1.542
	H273.031z"/>
<path fill="#696968" d="M275.738,10.432c0.337-1.542,0.562-2.533,2.128-2.533c1.543,0,1.339,0.991,1.019,2.533
	c-0.326,1.566-0.691,2.238-2.029,2.213C275.486,12.67,275.396,11.998,275.738,10.432 M276.645,11.056
	c-0.119,0.551-0.121,0.79,0.381,0.79c0.479,0,0.57-0.239,0.688-0.79l0.32-1.503c0.089-0.422,0.182-0.854-0.339-0.854
	c-0.551,0-0.641,0.432-0.731,0.854L276.645,11.056z"/>
<path fill="#696968" d="M281.25,8.483h0.016c0.342-0.521,0.818-0.585,1.057-0.585c0.592,0,0.999,0.346,0.795,1.152l-0.74,3.475
	h-1.039l0.642-3.004c0.092-0.441,0.106-0.727-0.282-0.742c-0.388-0.017-0.603,0.352-0.688,0.83l-0.622,2.916h-1.037l0.96-4.505
	h1.038L281.25,8.483z"/>
<path fill="#696968" d="M283.449,12.525l0.961-4.505h1.035l-0.959,4.505H283.449z M284.523,7.477l0.201-0.943h1.039l-0.201,0.943
	H284.523z"/>
<path fill="#696968" d="M286.045,8.779l0.16-0.759h0.4l0.095-0.448c0.173-0.814,0.558-1.039,1.316-1.039h0.39l-0.177,0.829
	c-0.074-0.021-0.156-0.045-0.22-0.045c-0.153,0-0.231,0.072-0.254,0.175l-0.111,0.528h0.445l-0.16,0.759h-0.446l-0.799,3.746h-1.038
	l0.797-3.746H286.045z"/>
<path fill="#696968" d="M287.891,12.525l0.961-4.505h1.037l-0.959,4.505H287.891z M288.966,7.477l0.199-0.943h1.041l-0.201,0.943
	H288.966z"/>
<path fill="#696968" d="M292.326,9.584l0.108-0.504c0.036-0.246-0.056-0.381-0.278-0.381c-0.398,0-0.496,0.455-0.604,1.005
	l-0.228,1.064c-0.211,0.879-0.14,1.037,0.161,1.077c0.32-0.009,0.394-0.303,0.501-0.663l0.09-0.414h1.037l-0.089,0.414
	c-0.2,0.944-0.702,1.462-1.733,1.462c-0.918,0-1.34-0.487-1.045-1.684l0.311-1.463c0.261-1.263,0.955-1.6,1.745-1.6
	c1.047,0,1.29,0.656,1.14,1.327l-0.074,0.358H292.326z"/>
<path fill="#696968" d="M293.938,10.432c0.336-1.542,0.563-2.533,2.129-2.533c1.541,0,1.336,0.991,1.018,2.533
	c-0.326,1.566-0.691,2.238-2.029,2.213C293.684,12.67,293.594,11.998,293.938,10.432 M294.843,11.056
	c-0.118,0.551-0.122,0.79,0.382,0.79c0.48,0,0.569-0.239,0.688-0.79l0.319-1.503c0.09-0.422,0.182-0.854-0.336-0.854
	c-0.554,0-0.645,0.432-0.733,0.854L294.843,11.056z"/>
<path fill-rule="evenodd" clip-rule="evenodd" fill="#035D81" d="M239.355,14.355c-0.146-0.019-0.279,0.054-0.431,0.043
	c-0.509-0.036-1-0.125-1.43-0.421c-0.074-0.051-0.146-0.109-0.206-0.174c-0.199-0.21-0.214-0.458-0.053-0.696
	c0.066-0.096,0.148-0.177,0.236-0.254c0.902-0.817,1.756-1.686,2.557-2.606c0.255-0.287,0.509-0.581,0.853-0.769
	c0.093-0.047,0.19-0.067,0.281-0.11c0.164-0.045,0.327-0.09,0.494-0.12c0.464-0.036,0.925-0.068,1.386-0.108
	c0.406-0.039,0.811-0.083,1.213-0.132c0.395-0.045,0.789-0.104,1.182-0.151c0.198-0.024,0.33-0.132,0.476-0.26
	c0.276-0.238,0.534-0.501,0.801-0.749c0.377-0.35,0.743-0.717,1.109-1.08c0.1-0.098,0.168-0.112,0.308-0.042
	c0.255,0.127,0.496,0.277,0.75,0.409c0.329,0.169,0.643,0.37,0.951,0.575c0.428,0.28,0.857,0.563,1.262,0.872
	c0.896,0.682,1.785,1.366,2.553,2.195c0.03,0.033,0.059,0.07,0.096,0.093c0.258,0.157,0.23,0.352,0.154,0.576
	c-0.301,0.875-0.873,1.528-1.612,2.063c-0.445,0.319-0.938,0.543-1.417,0.792c-0.121,0.061-0.245,0.05-0.37,0.015
	c-1.361-0.381-2.735-0.711-4.097-1.085c-0.866-0.237-1.731-0.492-2.6-0.726c-0.311-0.084-0.624-0.181-0.906-0.35
	c-0.121-0.074-0.231-0.079-0.361,0.032c-0.329,0.283-0.581,0.636-0.926,0.902c-0.525,0.405-1.047,0.824-1.67,1.078
	c-0.105,0.043-0.215,0.079-0.322,0.118C239.529,14.316,239.441,14.332,239.355,14.355"/>
<path fill-rule="evenodd" clip-rule="evenodd" fill="#41643C" d="M237.645,19.388c-0.108-0.086-0.103-0.198-0.074-0.319
	C237.595,19.176,237.621,19.282,237.645,19.388"/>
<path fill-rule="evenodd" clip-rule="evenodd" fill="#345030" d="M236.852,13.778c-0.074-0.085-0.132-0.174-0.066-0.289
	C236.807,13.585,236.832,13.683,236.852,13.778"/>
<path fill-rule="evenodd" clip-rule="evenodd" fill="#E7EFE8" d="M251.537,22.059c0.104,0.021,0.223-0.018,0.305,0.087
	C251.733,22.134,251.627,22.131,251.537,22.059"/>
<path fill-rule="evenodd" clip-rule="evenodd" fill="#039EA5" d="M255.172,16c-0.169-0.032-0.327-0.104-0.491-0.132
	c-0.269-0.048-0.524-0.129-0.783-0.202c-0.681-0.195-1.368-0.373-2.05-0.57c-0.244-0.073-0.498-0.14-0.752-0.2
	c-0.482-0.115-0.96-0.256-1.438-0.398c-0.533-0.156-1.071-0.306-1.609-0.45c-0.514-0.137-1.021-0.28-1.536-0.426
	c-0.149-0.041-0.308-0.08-0.458-0.115c-0.443-0.104-0.872-0.248-1.311-0.368c-0.2-0.056-0.404-0.108-0.605-0.162
	c-0.421-0.11-0.837-0.229-1.254-0.348c-0.1-0.027-0.214-0.127-0.323-0.016c-0.298,0.316-0.612,0.616-0.958,0.92
	c0.307,0.08,0.59,0.161,0.887,0.242c-0.226,0.18-0.484,0.235-0.713,0.354c-0.697,0.376-1.269,0.882-1.703,1.536
	c-0.854,1.295-0.967,2.684-0.496,4.134c0.16,0.489,0.412,0.932,0.73,1.338c0.023,0.029,0.068,0.058,0.038,0.1
	c-0.024,0.042-0.073,0.021-0.108,0.013c-0.098-0.021-0.189-0.063-0.285-0.085c-0.506-0.11-0.996-0.283-1.5-0.403
	c-0.315-0.077-0.625-0.172-0.939-0.256c-0.08-0.022-0.098-0.059-0.055-0.131c0.173-0.308,0.218-0.64,0.186-0.985
	c-0.061-0.099-0.076-0.205-0.074-0.319c-0.011-0.043-0.013-0.09-0.031-0.132c-0.108-0.236-0.256-0.443-0.461-0.608
	c-0.332-0.259-0.685-0.474-1.117-0.496c-0.127-0.008-0.18-0.048-0.139-0.188c0.133-0.457,0.258-0.917,0.381-1.374
	c0.158-0.582,0.312-1.163,0.463-1.745c0.033-0.115,0.08-0.125,0.182-0.068c0.23,0.133,0.484,0.188,0.745,0.212
	c0.114,0.01,0.231,0.012,0.354-0.053c-0.109-0.048-0.199-0.091-0.291-0.13c-0.349-0.146-0.617-0.381-0.805-0.708
	c-0.045-0.091-0.087-0.183-0.066-0.289c0.015-0.321,0.146-0.587,0.387-0.807c0.215-0.192,0.423-0.396,0.636-0.593
	c0.174-0.162,0.331-0.336,0.522-0.479c0.055-0.041,0.108-0.097,0.08-0.178c-0.025-0.079-0.101-0.073-0.162-0.084
	c-0.065-0.011-0.129-0.018-0.193-0.034c-0.219-0.063-0.436-0.139-0.657-0.195c-0.306-0.074-0.612-0.147-0.911-0.247
	c-0.102-0.033-0.148-0.019-0.19,0.089c-0.087,0.227-0.117,0.467-0.181,0.697c-0.207,0.737-0.402,1.479-0.617,2.211
	c-0.196,0.665-0.354,1.34-0.535,2.005c-0.17,0.619-0.355,1.233-0.525,1.854c-0.16,0.585-0.305,1.174-0.465,1.76
	c-0.081,0.299-0.162,0.599-0.268,0.89c-0.077,0.224-0.07,0.286,0.16,0.355c0.426,0.128,0.853,0.252,1.283,0.37
	c0.483,0.135,0.967,0.257,1.447,0.39c0.275,0.075,0.542,0.177,0.82,0.231c0.267,0.054,0.522,0.136,0.781,0.209
	c0.385,0.108,0.769,0.213,1.152,0.325c0.691,0.202,1.393,0.373,2.088,0.562c0.635,0.17,1.266,0.335,1.893,0.521
	c0.596,0.175,1.195,0.327,1.789,0.5c0.688,0.204,1.392,0.374,2.088,0.559c0.64,0.173,1.281,0.352,1.921,0.528
	c0.589,0.166,1.172,0.346,1.764,0.496c0.509,0.131,1.015,0.282,1.521,0.414c0.158,0.04,0.211,0.019,0.254-0.141
	c0.076-0.277,0.137-0.554,0.215-0.83c0.423-1.538,0.859-3.072,1.273-4.611c0.366-1.357,0.732-2.711,1.123-4.061
	C255.309,16.091,255.268,16.02,255.172,16 M244.976,18.876l-0.239,0.873l-1.648-0.455c-0.053,0.837,0.361,1.375,1.24,1.618
	c0.466,0.129,0.938,0.158,1.418,0.092l-0.344,1.248c-0.432,0.089-0.934,0.054-1.509-0.104c-0.798-0.219-1.396-0.617-1.79-1.191
	c-0.395-0.575-0.553-1.264-0.476-2.063l-0.671-0.186l0.24-0.867l0.574,0.155c0.01-0.076,0.03-0.179,0.065-0.306l0.082-0.258
	l-0.569-0.156l0.237-0.858l0.651,0.179c0.336-0.755,0.83-1.288,1.485-1.599c0.653-0.312,1.376-0.359,2.165-0.144
	c0.615,0.169,1.148,0.459,1.609,0.875l-0.791,0.999c-0.196-0.161-0.385-0.299-0.563-0.407c-0.179-0.111-0.377-0.198-0.587-0.256
	c-0.396-0.107-0.756-0.084-1.077,0.075c-0.319,0.158-0.577,0.445-0.772,0.861l1.97,0.542l-0.239,0.858l-2.042-0.562l-0.053,0.17
	l-0.063,0.228l-0.037,0.164L244.976,18.876z M253.158,19.03c-0.297,1.052-0.588,2.107-0.883,3.159
	c-0.033,0.128-0.103,0.159-0.207,0.081c-0.07-0.057-0.168-0.052-0.227-0.125c-0.092-0.065-0.21-0.034-0.305-0.087
	c-0.2,0.001-0.402-0.005-0.604,0.004c-0.151,0.008-0.298,0.035-0.413,0.147c-0.089,0.087-0.218,0.093-0.32,0.157
	c-0.459,0.298-0.684,0.73-0.709,1.262c-0.006,0.151-0.064,0.155-0.168,0.125c-0.164-0.043-0.332-0.082-0.49-0.134
	c-0.2-0.068-0.405-0.105-0.604-0.166c-0.301-0.094-0.606-0.165-0.909-0.247c-0.23-0.066-0.461-0.134-0.689-0.203
	c-0.034-0.008-0.068-0.021-0.092-0.067c0.178-0.09,0.351-0.171,0.521-0.264c1.382-0.714,2.244-1.83,2.511-3.364
	c0.084-0.486,0.123-0.994-0.01-1.492c-0.035-0.129,0.018-0.264-0.035-0.388c-0.145-0.345-0.248-0.703-0.417-1.038
	c-0.161-0.324-0.364-0.619-0.577-0.907c0.041-0.042,0.078-0.045,0.127-0.03c0.472,0.125,0.949,0.233,1.418,0.382
	c0.377,0.116,0.767,0.199,1.141,0.333c0.105,0.037,0.27-0.002,0.305,0.104c0.026,0.077-0.076,0.193-0.113,0.298
	c-0.162,0.442-0.152,0.875,0.065,1.295c0.205,0.388,0.483,0.694,0.906,0.866c0.223,0.092,0.444,0.151,0.681,0.162
	C253.162,18.898,253.185,18.93,253.158,19.03"/>
<path fill="#696968" d="M226.371,1.561c-0.283,0-0.504,0.105-0.658,0.321c-0.156,0.211-0.235,0.51-0.235,0.892
	c0,0.792,0.298,1.189,0.894,1.189c0.25,0,0.553-0.062,0.908-0.188v0.632c-0.293,0.121-0.617,0.184-0.978,0.184
	c-0.519,0-0.914-0.159-1.188-0.472c-0.272-0.314-0.41-0.765-0.41-1.352c0-0.371,0.066-0.694,0.201-0.974
	c0.135-0.276,0.329-0.489,0.58-0.637c0.252-0.15,0.549-0.225,0.887-0.225c0.346,0,0.693,0.083,1.043,0.252l-0.244,0.611
	c-0.133-0.062-0.266-0.118-0.402-0.164C226.634,1.584,226.502,1.561,226.371,1.561"/>
<path fill="#696968" d="M231.264,2.758c0,0.589-0.146,1.04-0.438,1.357c-0.292,0.315-0.711,0.476-1.257,0.476
	c-0.544,0-0.961-0.16-1.254-0.476c-0.293-0.317-0.438-0.77-0.438-1.362c0-0.592,0.146-1.044,0.439-1.356
	c0.292-0.312,0.712-0.469,1.259-0.469c0.548,0,0.966,0.159,1.255,0.472C231.118,1.714,231.264,2.169,231.264,2.758 M228.668,2.758
	c0,0.397,0.076,0.696,0.228,0.897s0.376,0.301,0.674,0.301c0.604,0,0.905-0.399,0.905-1.198c0-0.801-0.299-1.201-0.899-1.201
	c-0.3,0-0.524,0.102-0.678,0.304S228.668,2.36,228.668,2.758"/>
<path fill="#696968" d="M235.156,4.541h-0.959l-1.547-2.69h-0.021c0.03,0.476,0.045,0.814,0.045,1.016v1.675h-0.673V0.984h0.951
	l1.545,2.664h0.016c-0.023-0.461-0.037-0.788-0.037-0.979V0.984h0.68V4.541z"/>
<polygon fill="#696968" points="237.424,4.541 236.67,4.541 236.67,1.612 235.704,1.612 235.704,0.984 238.389,0.984 238.389,1.612 
	237.424,1.612 "/>
<path fill="#696968" d="M239.691,3.175v1.366h-0.756V0.984h1.038c0.483,0,0.841,0.088,1.072,0.263
	c0.231,0.177,0.349,0.444,0.349,0.804c0,0.209-0.058,0.395-0.174,0.557c-0.115,0.164-0.277,0.292-0.488,0.385
	c0.535,0.799,0.885,1.313,1.045,1.549h-0.836l-0.851-1.366H239.691z M239.691,2.563h0.241c0.239,0,0.416-0.04,0.53-0.119
	c0.111-0.08,0.169-0.205,0.169-0.374s-0.058-0.289-0.173-0.358c-0.118-0.074-0.295-0.108-0.538-0.108h-0.229V2.563z"/>
<path fill="#696968" d="M244.403,4.541l-0.257-0.847h-1.297l-0.258,0.847h-0.813l1.256-3.571h0.92l1.261,3.571H244.403z
	 M243.965,3.062c-0.238-0.767-0.373-1.201-0.402-1.302c-0.031-0.101-0.051-0.18-0.064-0.238c-0.055,0.208-0.208,0.721-0.46,1.54
	H243.965z"/>
<path fill="#696968" d="M247.762,3.555c0,0.32-0.115,0.573-0.346,0.758c-0.23,0.184-0.553,0.278-0.965,0.278
	c-0.379,0-0.715-0.072-1.008-0.216V3.676c0.24,0.106,0.443,0.181,0.61,0.226c0.165,0.044,0.318,0.066,0.455,0.066
	c0.166,0,0.292-0.032,0.38-0.096c0.09-0.064,0.133-0.156,0.133-0.281c0-0.07-0.018-0.132-0.058-0.187
	c-0.039-0.055-0.095-0.106-0.171-0.157c-0.076-0.052-0.229-0.132-0.461-0.241c-0.217-0.103-0.381-0.199-0.489-0.295
	c-0.108-0.093-0.194-0.203-0.259-0.326c-0.064-0.127-0.1-0.272-0.1-0.44c0-0.313,0.106-0.562,0.32-0.739
	c0.215-0.183,0.51-0.272,0.885-0.272c0.186,0,0.36,0.022,0.528,0.067c0.168,0.043,0.345,0.104,0.528,0.185l-0.243,0.585
	c-0.19-0.078-0.347-0.132-0.472-0.162c-0.125-0.031-0.244-0.047-0.365-0.047c-0.143,0-0.252,0.035-0.327,0.101
	c-0.079,0.064-0.116,0.152-0.116,0.259c0,0.068,0.016,0.125,0.047,0.175c0.03,0.051,0.078,0.098,0.146,0.144s0.227,0.13,0.479,0.25
	c0.332,0.158,0.561,0.318,0.684,0.477C247.701,3.125,247.762,3.321,247.762,3.555"/>
<path fill="#696968" d="M250.508,3.555c0,0.32-0.117,0.573-0.348,0.758c-0.232,0.184-0.552,0.278-0.963,0.278
	c-0.382,0-0.717-0.072-1.009-0.216V3.676c0.241,0.106,0.442,0.181,0.61,0.226c0.166,0.044,0.316,0.066,0.455,0.066
	c0.166,0,0.293-0.032,0.381-0.096c0.088-0.064,0.131-0.156,0.131-0.281c0-0.07-0.019-0.132-0.06-0.187
	c-0.036-0.055-0.095-0.106-0.169-0.157c-0.076-0.052-0.229-0.132-0.462-0.241c-0.216-0.103-0.379-0.199-0.487-0.295
	c-0.111-0.093-0.195-0.203-0.263-0.326c-0.063-0.127-0.095-0.272-0.095-0.44c0-0.313,0.105-0.562,0.318-0.739
	c0.215-0.183,0.51-0.272,0.885-0.272c0.185,0,0.361,0.022,0.529,0.067c0.168,0.043,0.342,0.104,0.526,0.185l-0.245,0.585
	c-0.188-0.078-0.345-0.132-0.467-0.162c-0.125-0.031-0.248-0.047-0.368-0.047c-0.144,0-0.253,0.035-0.328,0.101
	c-0.075,0.064-0.114,0.152-0.114,0.259c0,0.068,0.017,0.125,0.047,0.175c0.031,0.051,0.078,0.098,0.146,0.144s0.228,0.13,0.479,0.25
	c0.332,0.158,0.56,0.318,0.684,0.477C250.445,3.125,250.508,3.321,250.508,3.555"/>
<polygon fill="#696968" points="253.199,4.541 251.15,4.541 251.15,0.984 253.199,0.984 253.199,1.604 251.906,1.604 251.906,2.385 
	253.109,2.385 253.109,3.001 251.906,3.001 251.906,3.919 253.199,3.919 "/>
<path fill="#696968" d="M255.293,2.544h1.41v1.845c-0.229,0.072-0.443,0.127-0.646,0.155c-0.204,0.031-0.409,0.047-0.62,0.047
	c-0.536,0-0.945-0.159-1.23-0.475c-0.281-0.315-0.424-0.77-0.424-1.358c0-0.574,0.163-1.022,0.492-1.344
	c0.33-0.321,0.784-0.481,1.367-0.481c0.365,0,0.716,0.074,1.055,0.22l-0.25,0.604c-0.26-0.131-0.529-0.195-0.81-0.195
	c-0.328,0-0.589,0.109-0.784,0.329c-0.197,0.22-0.294,0.513-0.294,0.885c0,0.386,0.08,0.679,0.237,0.883
	c0.158,0.202,0.388,0.306,0.688,0.306c0.157,0,0.317-0.018,0.481-0.049V3.172h-0.674V2.544z"/>
<path fill="#696968" d="M260.703,4.541h-0.957l-1.549-2.69h-0.021c0.032,0.476,0.047,0.814,0.047,1.016v1.675h-0.674V0.984h0.95
	l1.545,2.664h0.017c-0.024-0.461-0.037-0.788-0.037-0.979V0.984h0.679V4.541z"/>
<path fill="#696968" d="M264.829,2.758c0,0.589-0.147,1.04-0.439,1.357c-0.294,0.315-0.71,0.476-1.255,0.476
	c-0.546,0-0.964-0.16-1.257-0.476c-0.291-0.317-0.437-0.77-0.437-1.362c0-0.592,0.146-1.044,0.438-1.356
	c0.294-0.312,0.715-0.469,1.261-0.469s0.964,0.159,1.255,0.472C264.684,1.714,264.829,2.169,264.829,2.758 M262.232,2.758
	c0,0.397,0.074,0.696,0.228,0.897c0.149,0.201,0.375,0.301,0.675,0.301c0.602,0,0.902-0.399,0.902-1.198
	c0-0.801-0.301-1.201-0.897-1.201c-0.301,0-0.526,0.102-0.679,0.304S262.232,2.36,262.232,2.758"/>
<path fill-rule="evenodd" clip-rule="evenodd" fill="#F4A71D" d="M111.689,15.38c3.934-1.634,9.453-3.112,16.762-1.631l0.077-1.795
	c-7.711-0.817-13.246,1.562-16.839,3.249V15.38z"/>
<polygon fill-rule="evenodd" clip-rule="evenodd" fill="#0058A0" points="104.588,16.7 108.295,16.7 108.295,17.782 105.99,17.782 
	105.977,18.781 108.272,18.781 108.272,19.817 105.967,19.817 105.978,20.816 108.248,20.816 108.248,21.897 104.589,21.897 "/>
<rect x="109.228" y="16.264" fill-rule="evenodd" clip-rule="evenodd" fill="#0058A0" width="1.35" height="5.634"/>
<path fill-rule="evenodd" clip-rule="evenodd" fill="#0058A0" d="M115.216,21.47c-0.456,0.374-1.155,0.563-1.776,0.563
	c-1.418,0-2.062-0.976-2.062-1.946c0-1.142,0.884-2.11,2.102-2.11c1.487,0,1.954,1.022,1.954,2.322h-2.706
	c0,0.291,0.193,0.788,0.936,0.788c0.474,0,0.739-0.136,1.102-0.376L115.216,21.47z M114.224,19.532c0-0.392-0.193-0.745-0.644-0.745
	c-0.427,0-0.752,0.37-0.837,0.745H114.224z"/>
<path fill-rule="evenodd" clip-rule="evenodd" fill="#0058A0" d="M119.528,21.643c-0.371,0.225-0.984,0.391-1.435,0.391
	c-1.239,0-2.131-0.692-2.131-1.937c0-1.278,0.883-2.12,2.216-2.12c0.466,0,1.025,0.143,1.328,0.33l-0.435,0.856
	c-0.202-0.081-0.419-0.149-0.636-0.149c-0.675,0-1.125,0.391-1.125,1.015c0,0.539,0.435,0.969,1.01,0.969
	c0.255,0,0.511-0.113,0.728-0.22L119.528,21.643z"/>
<path fill-rule="evenodd" clip-rule="evenodd" fill="#0058A0" d="M120.028,18.113h0.608l-0.004-1.286h1.303l-0.031,1.286h1.109
	l-0.024,0.944h-1.108c0,0.526-0.039,1.082-0.039,1.405c0,0.33,0.086,0.488,0.388,0.488c0.186,0,0.34-0.09,0.496-0.181l0.295,0.887
	c-0.395,0.232-0.877,0.376-1.333,0.376c-1.095,0-1.148-0.669-1.148-1.54c0-0.465,0.038-0.933,0.038-1.436h-0.581L120.028,18.113z"/>
<path fill-rule="evenodd" clip-rule="evenodd" fill="#0058A0" d="M123.705,18.113h1.349v0.532h0.015
	c0.201-0.323,0.465-0.64,0.992-0.64c0.148,0,0.302,0.016,0.443,0.047l-0.179,1.293c-0.132-0.04-0.28-0.076-0.481-0.076
	c-0.45,0-0.798,0.367-0.798,0.442l-0.025,2.186h-1.347L123.705,18.113z"/>
<path fill-rule="evenodd" clip-rule="evenodd" fill="#0058A0" d="M128.948,17.978c1.441,0,2.186,0.887,2.186,2.027
	c0,1.142-0.745,2.028-2.186,2.028c-1.442,0-2.188-0.887-2.188-2.028C126.76,18.864,127.506,17.978,128.948,17.978 M128.948,21.041
	c0.643,0,0.837-0.54,0.837-1.036c0-0.495-0.194-1.036-0.837-1.036c-0.645,0-0.838,0.541-0.838,1.036
	C128.11,20.501,128.303,21.041,128.948,21.041"/>
<path fill-rule="evenodd" clip-rule="evenodd" fill="#0058A0" d="M131.867,18.113h1.349v0.413c0.311-0.294,0.783-0.55,1.265-0.55
	c0.829,0,1.279,0.444,1.279,1.479c0,0.774-0.007,1.607-0.016,2.441h-1.349c0.009-0.728,0.016-1.464,0.016-2.246
	c0-0.306-0.086-0.549-0.487-0.549c-0.218,0-0.529,0.181-0.708,0.348l-0.007,2.447h-1.372L131.867,18.113z"/>
<polygon fill-rule="evenodd" clip-rule="evenodd" fill="#0058A0" points="115.687,10.314 117.393,4.87 118.914,4.87 117.207,10.314 
	"/>
<path fill-rule="evenodd" clip-rule="evenodd" fill="#0058A0" d="M115.007,4.871L113.64,7.18c-0.349,0.604-0.553,0.909-0.651,1.291
	h-0.021c0.023-0.485-0.046-1.078-0.052-1.412l-0.151-2.188h-2.56l-0.026,0.148c0.657,0,1.048,0.318,1.154,0.973l0.499,4.322h1.576
	l3.187-5.443H115.007z"/>
<path fill-rule="evenodd" clip-rule="evenodd" fill="#0058A0" d="M126.836,10.314l-0.043-0.811h-1.899l-0.388,0.811h-1.652
	l2.994-5.435h2.028l0.507,5.435H126.836z M126.663,7.104c-0.018-0.403-0.031-0.949-0.003-1.279h-0.022
	c-0.093,0.27-0.492,1.081-0.667,1.479l-0.566,1.194h1.335L126.663,7.104z"/>
<path fill-rule="evenodd" clip-rule="evenodd" fill="#0058A0" d="M120.51,10.47c-1.073,0-1.787-0.33-2.295-0.625l0.723-1.072
	c0.457,0.248,0.816,0.534,1.642,0.534c0.264,0,0.521-0.066,0.666-0.312c0.211-0.354-0.049-0.544-0.643-0.868L120.31,7.94
	c-0.881-0.582-1.263-1.135-0.849-2.103c0.266-0.619,0.966-1.087,2.121-1.087c0.795,0,1.543,0.332,1.977,0.658l-0.832,0.947
	c-0.424-0.333-0.776-0.501-1.18-0.501c-0.321,0-0.565,0.119-0.648,0.281c-0.159,0.305,0.051,0.512,0.514,0.79l0.349,0.215
	c1.069,0.652,1.324,1.339,1.056,1.979C122.356,10.224,121.454,10.47,120.51,10.47"/>
<path fill="#0096D6" d="M43.135,9.727h-3.008c-0.205,0-0.38,0.148-0.41,0.352l-1.216,7.709c-0.026,0.152,0.091,0.287,0.246,0.287
	h1.543c0.142,0,0.267-0.102,0.291-0.246l0.341-2.185c0.034-0.202,0.207-0.354,0.413-0.354h0.953c1.98,0,3.121-0.957,3.422-2.854
	c0.134-0.832,0.003-1.484-0.383-1.943C44.899,9.99,44.142,9.727,43.135,9.727 M43.481,12.539c-0.166,1.08-0.988,1.08-1.785,1.08
	h-0.453l0.316-2.014c0.022-0.123,0.123-0.212,0.25-0.212h0.207c0.543,0,1.057,0,1.317,0.308
	C43.493,11.889,43.542,12.162,43.481,12.539"/>
<path fill="#00539B" d="M21.69,9.727h-3.006c-0.205,0-0.382,0.148-0.414,0.352l-1.213,7.709c-0.027,0.152,0.092,0.287,0.247,0.287
	h1.435c0.205,0,0.381-0.146,0.414-0.352l0.326-2.079c0.034-0.202,0.207-0.354,0.414-0.354h0.95c1.98,0,3.125-0.957,3.423-2.854
	c0.133-0.832,0.006-1.484-0.384-1.943C23.456,9.99,22.698,9.727,21.69,9.727 M22.036,12.539c-0.164,1.08-0.986,1.08-1.785,1.08
	h-0.453l0.318-2.014c0.02-0.123,0.121-0.212,0.248-0.212h0.207c0.543,0,1.055,0,1.32,0.308
	C22.05,11.889,22.097,12.162,22.036,12.539"/>
<path fill="#00539B" d="M30.677,12.506h-1.44c-0.123,0-0.228,0.09-0.248,0.213l-0.062,0.4l-0.102-0.146
	c-0.31-0.451-1.006-0.604-1.701-0.604c-1.588,0-2.947,1.207-3.211,2.898c-0.138,0.842,0.057,1.646,0.535,2.211
	c0.438,0.516,1.065,0.73,1.815,0.73c1.281,0,1.992-0.822,1.992-0.822l-0.064,0.401c-0.026,0.151,0.091,0.286,0.248,0.286h1.294
	c0.208,0,0.383-0.146,0.411-0.352l0.781-4.928C30.948,12.645,30.831,12.506,30.677,12.506 M28.671,15.309
	c-0.137,0.822-0.793,1.373-1.625,1.373c-0.418,0-0.75-0.135-0.967-0.387c-0.213-0.254-0.291-0.611-0.224-1.012
	c0.128-0.814,0.793-1.387,1.611-1.387c0.412,0,0.742,0.137,0.963,0.395C28.648,14.549,28.733,14.91,28.671,15.309"/>
<path fill="#0096D6" d="M52.118,12.506h-1.44c-0.121,0-0.226,0.09-0.244,0.213l-0.066,0.4l-0.1-0.146
	c-0.31-0.451-1.006-0.604-1.701-0.604c-1.588,0-2.947,1.207-3.211,2.898c-0.138,0.842,0.055,1.646,0.535,2.211
	c0.44,0.516,1.067,0.73,1.815,0.73c1.279,0,1.992-0.822,1.992-0.822l-0.064,0.401c-0.026,0.151,0.093,0.286,0.246,0.286h1.295
	c0.209,0,0.382-0.146,0.416-0.352l0.777-4.928C52.391,12.645,52.276,12.506,52.118,12.506 M50.114,15.309
	c-0.139,0.822-0.793,1.373-1.625,1.373c-0.418,0-0.752-0.135-0.967-0.387c-0.213-0.254-0.295-0.611-0.224-1.012
	c0.13-0.814,0.793-1.387,1.615-1.387c0.406,0,0.738,0.137,0.957,0.395C50.091,14.549,50.176,14.91,50.114,15.309"/>
<path fill="#00539B" d="M38.347,12.506h-1.449c-0.139,0-0.268,0.068-0.346,0.184l-1.996,2.939l-0.844-2.824
	c-0.054-0.178-0.217-0.299-0.402-0.299h-1.424c-0.17,0-0.289,0.168-0.234,0.332l1.591,4.678l-1.496,2.115
	c-0.119,0.166,0,0.393,0.2,0.393h1.449c0.137,0,0.264-0.066,0.342-0.18l4.814-6.942C38.665,12.732,38.548,12.506,38.347,12.506"/>
<path fill="#0096D6" d="M53.817,9.938l-1.234,7.85c-0.022,0.152,0.093,0.287,0.25,0.287h1.24c0.205,0,0.379-0.146,0.412-0.352
	l1.219-7.709c0.021-0.148-0.098-0.287-0.25-0.287h-1.387C53.942,9.727,53.837,9.814,53.817,9.938"/>
<path fill="#0096D6" d="M11.159,10.129c0.16-1.033-0.002-1.736-0.561-2.371c-0.615-0.701-1.722-1-3.144-1H3.329
	c-0.287,0-0.535,0.213-0.58,0.498L1.032,18.145c-0.035,0.213,0.129,0.408,0.348,0.408h2.545l-0.174,1.113
	c-0.029,0.188,0.113,0.357,0.304,0.357h2.147c0.252,0,0.471-0.184,0.512-0.436l0.019-0.107l0.403-2.564l0.031-0.141
	c0.035-0.252,0.252-0.438,0.506-0.438h0.32c2.08,0,3.707-0.844,4.184-3.285c0.197-1.02,0.093-1.871-0.432-2.471
	C11.587,10.4,11.389,10.25,11.159,10.129"/>
<path fill="#004990" d="M11.159,10.129c0.16-1.033-0.002-1.736-0.561-2.371c-0.615-0.701-1.722-1-3.144-1H3.329
	c-0.287,0-0.535,0.213-0.58,0.498L1.032,18.145c-0.035,0.213,0.129,0.408,0.348,0.408h2.545l0.64-4.055l-0.021,0.127
	c0.049-0.285,0.293-0.498,0.584-0.498h1.207c2.377,0,4.238-0.965,4.781-3.756C11.132,10.287,11.145,10.207,11.159,10.129"/>
<path fill="#00539B" d="M5.253,10.143C5.282,9.969,5.39,9.828,5.542,9.758c0.065-0.031,0.141-0.051,0.221-0.051h3.232
	c0.381,0,0.74,0.025,1.065,0.078c0.093,0.014,0.183,0.033,0.273,0.051c0.088,0.02,0.172,0.043,0.256,0.068
	c0.041,0.01,0.084,0.023,0.123,0.035c0.16,0.053,0.309,0.117,0.447,0.189c0.16-1.033-0.002-1.736-0.56-2.371
	c-0.616-0.701-1.723-1-3.145-1H3.329c-0.287,0-0.535,0.213-0.58,0.498L1.032,18.145c-0.035,0.213,0.129,0.408,0.348,0.408h2.545
	l0.641-4.055L5.253,10.143z"/>
</svg>
