<?xml version="1.0" encoding="utf-8"?>
<!-- Generator: Adobe Illustrator 15.0.0, SVG Export Plug-In . SVG Version: 6.00 Build 0)  -->
<!DOCTYPE svg PUBLIC "-//W3C//DTD SVG 1.1//EN" "http://www.w3.org/Graphics/SVG/1.1/DTD/svg11.dtd">
<svg version="1.1" id="Layer_1" xmlns="http://www.w3.org/2000/svg" xmlns:xlink="http://www.w3.org/1999/xlink" x="0px" y="0px"
	 width="219.01px" height="27px" viewBox="0 0 219.01 27" enable-background="new 0 0 219.01 27" xml:space="preserve">
<g>
	<polygon fill-rule="evenodd" clip-rule="evenodd" fill="#004896" points="62.261,17.522 64.659,5.209 60.479,5.209 57.316,21.618 
		64.938,21.627 65.703,17.522 	"/>
	<path fill-rule="evenodd" clip-rule="evenodd" fill="#004896" d="M74.532,8.84c0.688,0,1.675,0.164,2.269,0.376l0.71-3.781
		C76.638,5.294,75.701,5.2,74.672,5.2c-4.538,0-6.669,2.702-6.669,5.73c0,3.969,4.033,3.921,4.033,5.611
		c0,0.848-0.597,1.318-1.878,1.318c-0.894,0-2.132-0.214-2.868-0.495l-0.773,4.056c0.847,0.165,2.034,0.29,3.229,0.29
		c4.055,0,6.893-2.702,6.893-5.967c0-3.851-4.051-3.921-4.051-5.612C72.587,9.381,73.091,8.84,74.532,8.84"/>
	<path fill-rule="evenodd" clip-rule="evenodd" fill="#004896" d="M54.028,5.213c-6.232,0-10.231,4.667-10.231,10.392
		c0,3.582,1.885,6.059,6.644,6.059c1.886,0,3.874-0.348,5.46-1.031l1.53-7.924h-4.184l-0.897,4.83
		c-0.369,0.094-0.805,0.118-1.15,0.118c-2.092,0-2.85-1.153-2.85-2.687c0-2.851,1.747-5.798,5.311-5.798
		c1.001,0,2.097,0.188,3.078,0.493c0.102,0.028,0.201,0.061,0.309,0.096c0.354,0.121,0.655,0.251,0.873,0.368l0.852-4.286
		C57.336,5.452,55.614,5.213,54.028,5.213"/>
	<path fill-rule="evenodd" clip-rule="evenodd" fill="#F7BC17" d="M22.718,5.263l-1.123,5.444h7.741
		c-6.411,9.503-19.144,7.888-22.509,3.949c-2.899-3.396-0.395-9.204,8.196-12.791C6.52,4.452,1.745,11.249,4.551,15.823
		c3.178,5.187,13.092,7.354,21.901,4.834c5.887-2.071,8.397-4.968,9.316-6.531l-1.443,7.535h5.788l3.14-16.398H22.718z"/>
	<polygon fill="#F47920" points="134.484,20.845 132.36,18.464 130.255,20.845 125.827,20.845 130.154,15.983 125.827,11.118 
		130.394,11.118 132.539,13.479 134.603,11.118 139.012,11.118 134.702,15.965 139.07,20.845 	"/>
	<polygon fill="#F47920" points="117.317,20.845 117.317,5.52 125.827,5.52 125.827,8.935 120.922,8.935 120.922,11.118 
		125.827,11.118 125.827,14.407 120.922,14.407 120.922,17.421 125.827,17.421 125.827,20.845 	"/>
	<path fill="#472F92" d="M113.73,5.52v6.274h-0.04c-0.796-0.914-1.789-1.232-2.939-1.232c-2.36,0-4.137,1.604-4.762,3.724
		c-0.712-2.334-2.547-3.767-5.266-3.767c-2.21,0-3.955,0.992-4.865,2.606v-2.006h-4.567V8.935h4.984V5.52H87.22v15.325h4.071v-6.438
		h4.057c-0.12,0.47-0.184,0.98-0.184,1.514c0,3.196,2.44,5.439,5.56,5.439c2.619,0,4.348-1.229,5.261-3.474h-3.49
		c-0.472,0.674-0.828,0.874-1.771,0.874c-1.096,0-2.039-0.953-2.039-2.087h7.105c0.308,2.539,2.285,4.731,5.002,4.731
		c1.169,0,2.242-0.576,2.898-1.55h0.04v0.99h3.587V5.52H113.73z M98.799,14.451c0.227-0.975,0.979-1.61,1.925-1.61
		c1.037,0,1.752,0.615,1.941,1.61H98.799z M111.55,18.514c-1.321,0-2.143-1.232-2.143-2.518c0-1.377,0.713-2.701,2.143-2.701
		c1.484,0,2.075,1.324,2.075,2.701C113.625,17.298,112.998,18.514,111.55,18.514"/>
	<rect x="147.079" y="5.201" fill="#FFCB07" width="71.931" height="15.873"/>
	<path fill="#D1202D" d="M159.728,8.05l-2.298,3.123h12.525c0.633,0,0.625,0.241,0.315,0.66c-0.314,0.426-0.841,1.166-1.16,1.598
		c-0.162,0.22-0.456,0.618,0.517,0.618h5.122c0,0,0.826-1.123,1.518-2.062c0.941-1.277,0.082-3.937-3.284-3.937H159.728z"/>
	<path fill="#D1202D" d="M156.5,18.223l4.616-6.271h5.729c0.633,0,0.624,0.239,0.315,0.659c-0.314,0.427-0.85,1.158-1.169,1.591
		c-0.163,0.219-0.457,0.618,0.517,0.618h7.674c-0.638,0.875-2.708,3.403-6.426,3.403H156.5z"/>
	<polygon fill="#D1202D" points="182.936,14.819 180.433,18.223 173.829,18.223 176.333,14.819 	"/>
	<polygon fill="#D1202D" points="193.052,14.049 176.9,14.049 181.317,8.05 187.919,8.05 185.388,11.49 188.334,11.49 190.866,8.05 
		197.467,8.05 	"/>
	<polygon fill="#D1202D" points="192.484,14.819 189.98,18.223 183.38,18.223 185.884,14.819 	"/>
	<polygon fill="#D1202D" points="147.079,16.161 156.806,16.161 156.274,16.885 147.079,16.885 	"/>
	<polygon fill="#D1202D" points="147.079,14.819 157.794,14.819 157.262,15.542 147.079,15.542 	"/>
	<polygon fill="#D1202D" points="147.079,17.504 155.818,17.504 155.288,18.223 147.079,18.223 	"/>
	<polygon fill="#D1202D" points="219.01,16.885 209.319,16.885 209.852,16.161 219.01,16.161 	"/>
	<polygon fill="#D1202D" points="219.01,18.223 208.335,18.224 208.863,17.504 219.01,17.504 	"/>
	<polygon fill="#D1202D" points="210.838,14.819 219.01,14.819 219.01,15.542 210.308,15.543 	"/>
	<polygon fill="#D1202D" points="206.608,8.05 202.192,14.049 195.198,14.049 199.617,8.05 	"/>
	<path fill="#D1202D" d="M194.632,14.819c0,0-0.482,0.66-0.717,0.978c-0.829,1.12-0.098,2.426,2.609,2.426h10.602l2.504-3.403
		H194.632z"/>
</g>
</svg>
